<svg width="30" height="30" viewBox="0 0 30 30" fill="none" xmlns="http://www.w3.org/2000/svg">
<path d="M28.3498 0.00187351C27.8278 0.0221217 27.3488 0.325838 27.0724 0.811786L12.2835 25.6761L2.70272 16.5781C2.29124 16.109 1.67401 15.9335 1.10592 16.1292C0.540898 16.3216 0.120202 16.848 0.0219369 17.4892C-0.0763279 18.1338 0.160121 18.7817 0.639163 19.1698L11.5957 29.5907C11.9396 29.9113 12.3941 30.053 12.8394 29.9821C13.2877 29.9079 13.6838 29.6278 13.9295 29.2127L29.7256 2.70158C30.0633 2.15826 30.091 1.45634 29.7993 0.882653C29.5075 0.31234 28.9456 -0.028498 28.3498 0.00187351Z" fill="#9CB189"/>
</svg>
